<?xml version="1.0" encoding="utf-8"?>
<!-- Generator: Adobe Illustrator 28.2.0, SVG Export Plug-In . SVG Version: 6.00 Build 0)  -->
<svg version="1.1" id="Layer_1" xmlns="http://www.w3.org/2000/svg" xmlns:xlink="http://www.w3.org/1999/xlink" x="0px" y="0px"
	 viewBox="0 0 110 135" style="enable-background:new 0 0 110 135;" xml:space="preserve">
<style type="text/css">
	.st0{fill:#FFFFFF;}
	.st1{fill:#451212;}
</style>
<g>
	<path class="st0" d="M90,72.1c-3.3-3-7.2-5.3-11.4-6.8c-4.7-1.5-4.7-2.1-2.6-5.5c-4.5-0.4-9,0.3-11.4-4.1c-3.7-2.2-2.6-8-5.5-10.1
		c-3.4-1.8-9-6-6.5-10c2.9-2.3-4.5-4.5,1.8-6c1.6-1.1,2.3-0.3,2.8-2c0.7-0.2,1.8,0.5,2.6-0.2c0.8-1.1-0.7-2,0.3-3
		c0-0.7-2.3-1-0.9-1.9c4.6-2.7-8.6-1.1-7.7-5.9c-1.9,1.4-4.9-0.7-6.1,1.7c-1.1,1.1-4.7-1.6-3.6,1.8c0.1,2.5-3.2-3.1-2,2.1
		c0.3,2.7-0.7,0-1.5-0.3c-1.9,1.5-1.8-0.4-2.7-1.2c-1.2-0.4-0.5,1.3-0.7,1.9c-1.1,1.1-2.1,2.2-1.5,3.7c-0.7,0.5-1.4-1.5-1.3-2
		c-1.2-0.8-2.4-1.5-2.1-3.1c-0.4-0.1-2.3,1.1-1.8,1.6c-0.4,3.9-5.9,0.8-7.9,2.9c0.3,2.2,3,4.1-0.5,5.5c-2.8-0.1,1.4,2.4,1.1,3.6
		c-2.4,1.6-0.6,5.4,2.7,4.9c2.3,0.2-1.3,2.4-0.1,3.2c4.4,0.7,5.4-7,9.7-4c1.4,1.3,6.7,2.6,6.5,5.4c-0.1,2.7,2.1,4.1,1.3,6.7
		c0.6,0,1.7-0.3,1.4,0.8c-0.1,1.1,3.8,2.2,2,3.6c0.8,0.9,3.4,0.2,3.8,2.4c2.1,2,3.7,4.5,5.8,6c1.5,0.2,1.9,2.8,3.4,1.6
		c2.8-0.6,4.4,1.6,5.5,4l0,0c0.8-0.4,1.7-0.2,2.3,0.4c0.6,0.7-1.6,0.6-0.5,1.4c5.2-2.4,1.9,3.1,6.4,4.8c0.8-0.3,1.8-1.3,2.3,0.3
		c0.6,3.2,3.1,6.6,3.1,9.7c-0.6,1.2-3,0.3-1.8,2.1c-1.1,2.2-3.5,6.6,1.4,4.7c0-1.8,1.6-2.7,2.8-3.8c0.3-1.7-0.6-3.7,1.8-4.3
		c3.3,0.5,1.2-1.9,1.7-3.8c-0.5-1.5-3.5-1.6-4.2-2.9c0.3-2.6,3.1-9.3,4.9-5.6c2.4,1,4.6,0.3,4.7,3.3C90.1,78.5,92.3,73.9,90,72.1
		L90,72.1z"/>
	<path class="st0" d="M35.4,69.7c-0.7-1.8,0.7-2-1.5-2.5c-0.2-0.7,2.1-0.2,0.9-0.6c-1.4,0.2,0.1-0.7-0.4-0.9c-0.8,1-1.2-2.4-2.3-0.7
		v0c-1.2,1.3-2.8,2.3-4.5,2.9c-0.8,0.3-1.5-1.2-1.8-0.1c-1.1,2.4,3.1,4.3,0.9,6.8c-0.6,1.3,1.6,1.1,0.5,2.4c-0.8,0.5-1.5,4-0.8,5.1
		c-0.7,1.3-0.4,1.6,0.6,0.4c0.1,1.6,0.7,1.2,1.9,1.6c2.6-1.7,0.1-3.5,4.5-1.7c1.1-2.6,2-6.8,1-9.3C35,71.8,36.6,71.1,35.4,69.7
		L35.4,69.7z"/>
	<path class="st0" d="M72.2,90c-0.7,0.9-1.8,0.1-2,0.5c0,1.7-1.9,0.1-2.8,0.6c-2.8,1.7-8,2-9.6-0.4c-1.8-0.1-2.7,3.1-3.6,0.3
		c-5.3,3.4,0,5,3.1,6.2c2.4,3,6.4,1.6,7.8,4.9c6.4,3.2,3.2,0.2,6-1.6C66.7,95.5,74.1,91.3,72.2,90L72.2,90z"/>
</g>
<circle class="st1" cx="49.4" cy="50.5" r="2.1"/>
</svg>
