<svg xmlns="http://www.w3.org/2000/svg" version="1.1" viewBox="-5.0 -10.0 110.0 135.0">
 <path d="m89.52 12.832c-1.5547-1.0508-3.5312-1.2617-5.2695-0.55859l-22.141 8.9102-21.578-8.6797c-0.79688-0.41406-1.6875-0.63281-2.6055-0.63281-0.83203-0.011719-1.6445 0.16406-2.3906 0.49609l-20.004 6.9531c-4.5078 1.5664-7.5352 5.8242-7.5352 10.594v52.57c0 1.8477 0.90234 3.5781 2.418 4.6328 0.96094 0.67187 2.0898 1.0156 3.2305 1.0156 0.66016 0 1.3203-0.11328 1.9531-0.35156l23.371-8.6211 20.004 8.0508c0.91016 0.59375 1.9766 0.92578 3.0859 0.92578 0.56641 0 1.1406-0.085938 1.7109-0.26562l20.414-6.4727c4.6836-1.4844 7.8242-5.7852 7.8242-10.695l0.003907-53.188c0-1.875-0.93359-3.6328-2.4844-4.6836zm-47.344 55.438v-42.93l15.734 6.332v42.934l-15.734-6.332zm-22.883-38.297 14.406-5.0039v43.832c-0.11328 0.11719-0.21875 0.25-0.32031 0.37891l-14.086 5.1992zm61.418 40.672-14.32 4.543v-43.551l14.32-5.7617z"/>
<text x="0.0" y="117.5" font-size="5.0" font-weight="bold" font-family="Arbeit Regular, Helvetica, Arial-Unicode, Arial, Sans-serif" fill="#000000">Created by Aman</text><text x="0.0" y="122.5" font-size="5.0" font-weight="bold" font-family="Arbeit Regular, Helvetica, Arial-Unicode, Arial, Sans-serif" fill="#000000">from Noun Project</text></svg>