<?xml version="1.0" encoding="utf-8"?>
<!-- Generator: Adobe Illustrator 28.2.0, SVG Export Plug-In . SVG Version: 6.00 Build 0)  -->
<svg version="1.1" id="Layer_1" xmlns="http://www.w3.org/2000/svg" xmlns:xlink="http://www.w3.org/1999/xlink" x="0px" y="0px"
	 viewBox="0 0 916 1000" style="enable-background:new 0 0 916 1000;" xml:space="preserve">
<style type="text/css">
	.st0{fill:#D3072B;}
</style>
<path class="st0" d="M755,219c-66,0-137.7,56.3-215,169l-26-14c38-78,57-144,57-198c0-82-37.7-123-113-123c-36,0-64,11-84,33
	c-19.3,23.3-29,52.7-29,88c0,55.3,19,122,57,200l-26,14c-77.3-112.7-149-169-215-169c-29.3,0-54.7,12.7-76,38s-32,52.7-32,82
	c0,83.3,89,132.3,267,147v29C142,530.3,53,579.3,53,662c0,32.7,11.2,60.8,33.5,84.5S133.7,782,161,782c67.3,0,139-56.7,215-170
	l26,15c-38,79.3-57,145.7-57,199c0,35.3,9.7,64.7,29,88c20,22,48,33,84,33c75.3,0,113-41.3,113-124c0-53.3-19-118.7-57-196l26-15
	c76,113.3,147.7,170,215,170c28.7,0,53.8-12.5,75.5-37.5S863,692,863,662c0-41.3-22.5-74.3-67.5-99c-45-24.7-111.8-40.7-200.5-48
	v-29c178.7-15.3,268-64.3,268-147c0-30.7-11.2-58.3-33.5-83S782.3,219,755,219z"/>
</svg>
