<?xml version="1.0" encoding="utf-8"?>
<!-- Generator: Adobe Illustrator 26.3.1, SVG Export Plug-In . SVG Version: 6.00 Build 0)  -->
<svg version="1.1" id="Laag_1" xmlns="http://www.w3.org/2000/svg" xmlns:xlink="http://www.w3.org/1999/xlink" x="0px" y="0px"
	 viewBox="0 0 1920 540" style="enable-background:new 0 0 1920 540;" xml:space="preserve">
<style type="text/css">
	.st0{fill:#FFFFFF;}
</style>
<path class="st0" d="M110.4,459C37.37,459,0.33,421.96,0.33,348.41v-58.43h92.85v66.77c0,10.43,4.18,14.61,13.57,14.61
	c9.91,0,14.08-4.18,14.08-14.61V87.04h100.68v261.36C221.52,421.96,183.44,459,110.4,459z"/>
<path class="st0" d="M241.86,197.64c0-78.24,39.13-117.37,114.77-117.37c75.12,0,114.27,39.13,114.27,117.37v143.94
	C470.87,419.87,431.74,459,356.63,459c-75.65,0-114.77-39.13-114.77-117.42V197.64z M356.63,371.36c9.39,0,13.56-4.18,13.56-14.61
	V182.52c0-10.43-4.18-14.61-13.56-14.61c-9.91,0-14.09,4.18-14.09,14.61v174.24C342.54,367.19,346.71,371.36,356.63,371.36z"/>
<path class="st0" d="M593.97,315.02v137.2H493.29V87.04h122.07c54.26,0,106.95,6.79,106.95,94.94v10.43c0,48-17.21,69.91-41.21,79.3
	c24.52,10.95,41.21,34.95,41.21,85.56v3.15c0,66.25,8.35,75.12,18.26,91.81H633.62c-5.74-11.47-12.51-29.73-12.51-76.68v-17.73
	c0-36-7.83-42.78-22.96-42.78L593.97,315.02z M607.53,227.38c9.39,0,13.57-4.18,13.57-14.61v-23.48c0-10.43-4.18-14.6-13.57-14.6
	h-13.56v52.69H607.53z"/>
<path class="st0" d="M944,174.69h-53.18v277.52h-100.7V174.69H736.9V87.04H944V174.69z"/>
<path class="st0" d="M1058.24,452.21H957.56V87.04h168.5v87.65h-67.82v53.21h53.73v87.64h-53.73V452.21z"/>
<path class="st0" d="M1135.43,197.64c0-78.24,39.13-117.37,114.76-117.37c75.12,0,114.27,39.13,114.27,117.37v143.94
	c-0.03,78.29-39.14,117.42-114.3,117.42c-75.65,0-114.76-39.13-114.76-117.42L1135.43,197.64z M1250.16,371.36
	c9.39,0,13.57-4.18,13.57-14.61V182.52c0-10.43-4.18-14.61-13.57-14.61c-9.91,0-14.08,4.18-14.08,14.61v174.24
	C1236.11,367.19,1240.29,371.36,1250.16,371.36z"/>
<path class="st0" d="M1386.87,87.04h100.68v277.53h67.82v87.64h-168.5V87.04z"/>
<path class="st0" d="M1568.4,87.04h100.68v365.17H1568.4V87.04z"/>
<path class="st0" d="M1690.99,197.64c0-78.28,39.09-117.37,114.75-117.37c75.12,0,114.27,39.13,114.27,117.37v143.94
	c0,78.29-39.13,117.42-114.27,117.42c-75.65,0-114.77-39.13-114.77-117.42L1690.99,197.64z M1805.73,371.36
	c9.39,0,13.56-4.18,13.56-14.61V182.52c0-10.43-4.18-14.61-13.56-14.61c-9.91,0-14.09,4.18-14.09,14.61v174.24
	C1791.67,367.19,1795.84,371.36,1805.73,371.36z"/>
</svg>
