<svg id="Laag_1" data-name="Laag 1" xmlns="http://www.w3.org/2000/svg" viewBox="0 0 480.6 2436"><defs><style>.cls-1{fill:#fff;}</style></defs><path class="cls-1" d="M0,139.68C0,47,47,0,140.34,0h74.14V117.83H129.75c-13.24,0-18.54,5.3-18.54,17.22,0,12.57,5.3,17.87,18.54,17.87H472V280.68H140.34C47,280.68,0,232.36,0,139.68Z"/><path class="cls-1" d="M331.66,306.49c99.29,0,148.94,49.65,148.94,145.64,0,95.32-49.65,145-148.94,145H149C49.65,597.1,0,547.45,0,452.13c0-96,49.65-145.64,149-145.64ZM111.21,452.13c0,11.91,5.3,17.21,18.54,17.21h221.1c13.24,0,18.54-5.3,18.54-17.21,0-12.58-5.3-17.88-18.54-17.88H129.75C116.51,434.25,111.21,439.55,111.21,452.13Z"/><path class="cls-1" d="M182.71,753.31H8.61V625.55H472v154.9c0,68.85-8.61,135.71-120.48,135.71H338.28c-60.91,0-88.71-21.84-100.63-52.3-13.9,31.12-44.35,52.3-108.57,52.3h-4c-84.07,0-95.32,10.59-116.5,23.17V803.62c14.56-7.28,37.73-15.88,97.31-15.88h22.5c45.68,0,54.29-9.93,54.29-29.13Zm111.21,17.21c0,11.92,5.3,17.22,18.54,17.22h29.79c13.24,0,18.53-5.3,18.53-17.22V753.31H293.92Z"/><path class="cls-1" d="M360.78,1197.49V1130H8.61V1002.21H360.78V934.68H472v262.81Z"/><path class="cls-1" d="M8.61,1342.45V1214.69H472v213.82H360.78v-86.06H293.26v68.18H182.05v-68.18Z"/><path class="cls-1" d="M331.66,1440.41c99.29,0,148.94,49.65,148.94,145.63,0,95.33-49.65,145-148.94,145H149C49.65,1731,0,1681.37,0,1586c0-96,49.65-145.63,149-145.63ZM111.21,1586c0,11.92,5.3,17.22,18.54,17.22h221.1c13.24,0,18.54-5.3,18.54-17.22,0-12.57-5.3-17.87-18.54-17.87H129.75C116.51,1568.17,111.21,1573.47,111.21,1586Z"/><path class="cls-1" d="M472,1759.47v127.76H119.82v86.06H8.61V1759.47Z"/><path class="cls-1" d="M472,1989.83v127.76H8.61V1989.83Z"/><path class="cls-1" d="M331.66,2145.39C431,2145.39,480.6,2195,480.6,2291c0,95.32-49.65,145-148.94,145H149C49.65,2436,0,2386.35,0,2291c0-96,49.65-145.64,149-145.64ZM111.21,2291c0,11.91,5.3,17.21,18.54,17.21h221.1c13.24,0,18.54-5.3,18.54-17.21,0-12.58-5.3-17.88-18.54-17.88H129.75C116.51,2273.15,111.21,2278.45,111.21,2291Z"/></svg>