<?xml version="1.0" encoding="UTF-8"?><svg id="Layer_1" xmlns="http://www.w3.org/2000/svg" viewBox="0 0 1878.29 407.57"><defs><style>.cls-1{fill:#fff;stroke-width:0px;}</style></defs><path class="cls-1" d="m0,298.39v-52.47h63.07v51.94c0,30.74,27.03,51.94,66.25,51.94s64.66-23.32,64.66-56.71V28.62h63.6v265.53c0,66.78-51.94,113.42-127.2,113.42S0,362.52,0,298.39Z"/><path class="cls-1" d="m279.83,256.52c0-91.69,62.01-146.28,144.16-146.28,90.63,0,143.63,63.6,143.63,146.28,0,94.87-59.89,151.05-143.63,151.05-91.16,0-144.16-64.13-144.16-151.05Zm224.19,0c0-55.65-31.27-92.75-80.03-92.75s-80.56,37.1-80.56,92.75c0,61.48,34.45,97.52,80.56,97.52,50.35,0,80.03-41.34,80.03-97.52Z"/><path class="cls-1" d="m586.17,399.62V118.72h50.35l7.42,55.12c18.02-38.16,50.88-58.3,97.52-58.3h10.6v60.95h-10.6c-58.3,0-92.75,31.27-92.75,84.27v138.86h-62.54Z"/><path class="cls-1" d="m907.35,399.62c-60.95,0-93.81-30.21-93.81-85.86v-142.04h-49.29v-53h49.29V22.79h62.54v95.93h94.87v-34.98c0-53,31.27-81.62,89.57-81.62h61.48v53h-57.24c-20.14,0-30.74,11.66-30.74,32.86v30.74h81.62v53h-81.62v227.9h-63.07v-227.9h-94.87v137.8c0,23.85,12.19,37.1,35.51,37.1h31.8v53h-36.04Z"/><path class="cls-1" d="m1105.04,256.52c0-91.69,62.01-146.28,144.16-146.28,90.63,0,143.63,63.6,143.63,146.28,0,94.87-59.89,151.05-143.63,151.05-91.16,0-144.16-64.13-144.16-151.05Zm224.19,0c0-55.65-31.27-92.75-80.03-92.75s-80.56,37.1-80.56,92.75c0,61.48,34.45,97.52,80.56,97.52,50.35,0,80.03-41.34,80.03-97.52Z"/><path class="cls-1" d="m1412.43,399.62V2.12h62.54v397.5h-62.54Z"/><path class="cls-1" d="m1500.41,40.28c0-22.79,17.49-40.28,40.28-40.28s40.28,17.49,40.28,40.28-16.96,40.81-40.28,40.81-40.28-18.02-40.28-40.81Zm9.01,359.34V118.72h62.54v280.9h-62.54Z"/><path class="cls-1" d="m1590.5,256.52c0-91.69,62.01-146.28,144.16-146.28,90.63,0,143.63,63.6,143.63,146.28,0,94.87-59.89,151.05-143.63,151.05-91.16,0-144.16-64.13-144.16-151.05Zm224.19,0c0-55.65-31.27-92.75-80.03-92.75s-80.56,37.1-80.56,92.75c0,61.48,34.45,97.52,80.56,97.52,50.35,0,80.03-41.34,80.03-97.52Z"/></svg>