<?xml version="1.0" encoding="UTF-8"?><svg id="Layer_2" xmlns="http://www.w3.org/2000/svg" viewBox="0 0 480.6 2436"><defs><style>.cls-1{fill:#fff;stroke-width:0px;}</style></defs><path class="cls-1" d="m0,139.68C0,47,47,0,140.34,0h66.07c4.46,0,8.07,3.61,8.07,8.07v101.68c0,4.46-3.61,8.07-8.07,8.07h-76.66c-13.24,0-18.54,5.3-18.54,17.22,0,12.57,5.3,17.87,18.54,17.87h334.18c4.46,0,8.07,3.61,8.07,8.07v111.61c0,4.46-3.61,8.07-8.07,8.07H140.34C47,280.68,0,232.36,0,139.68Z"/><path class="cls-1" d="m331.66,306.49c99.29,0,148.94,49.65,148.94,145.64s-49.65,145-148.94,145h-182.66c-99.35-.03-149-49.68-149-145s49.65-145.64,149-145.64h182.66Zm-220.45,145.64c0,11.91,5.3,17.21,18.54,17.21h221.1c13.24,0,18.54-5.3,18.54-17.21,0-12.58-5.3-17.88-18.54-17.88h-221.1c-13.24,0-18.54,5.3-18.54,17.88Z"/><path class="cls-1" d="m177.41,753.31H13.88c-2.91,0-5.27-2.36-5.27-5.27v-117.22c0-2.91,2.36-5.27,5.27-5.27h452.85c2.91,0,5.27,2.36,5.27,5.27v149.63c0,68.85-8.61,135.71-120.48,135.71h-13.24c-54.47,0-82.46-17.47-96.3-42.94-1.95-3.58-7.04-3.61-9.14-.12-15.68,26-46.12,43.06-103.76,43.06h-4c-73.12,0-91.15,8.01-108.55,18.38-3.51,2.09-7.95-.45-7.95-4.53v-123.08c0-2.05,1.18-3.91,3.04-4.78,14.78-6.92,38.67-14.41,94.27-14.41h22.5c45.68,0,54.29-9.93,54.29-29.13h0c.02-2.92-2.35-5.3-5.27-5.3Zm116.51,17.21c0,11.92,5.3,17.22,18.54,17.22h29.79c13.24,0,18.53-5.3,18.53-17.22v-11.94c0-2.91-2.36-5.27-5.27-5.27h-56.32c-2.91,0-5.27,2.36-5.27,5.27v11.94Z"/><path class="cls-1" d="m360.78,1189.33v-51.17c0-4.51-3.65-8.16-8.16-8.16H16.77c-4.51,0-8.16-3.65-8.16-8.16v-111.47c0-4.51,3.65-8.16,8.16-8.16h335.85c4.51,0,8.16-3.65,8.16-8.16v-51.21c0-4.51,3.65-8.16,8.16-8.16h94.9c4.51,0,8.16,3.65,8.16,8.16v246.49c0,4.51-3.65,8.16-8.16,8.16h-94.9c-4.51,0-8.16-3.65-8.16-8.16Z"/><path class="cls-1" d="m8.61,1334.36v-111.58c0-4.47,3.62-8.09,8.09-8.09h447.21c4.47,0,8.09,3.62,8.09,8.09v197.64c0,4.47-3.62,8.09-8.09,8.09h-95.04c-4.47,0-8.09-3.62-8.09-8.09v-69.88c0-4.47-3.62-8.09-8.09-8.09h-51.34c-4.47,0-8.09,3.62-8.09,8.09v52c0,4.47-3.62,8.09-8.09,8.09h-95.03c-4.47,0-8.09-3.62-8.09-8.09v-52c0-4.47-3.62-8.09-8.09-8.09H16.7c-4.47,0-8.09-3.62-8.09-8.09Z"/><path class="cls-1" d="m331.66,1440.41c99.29,0,148.94,49.65,148.94,145.63s-49.65,145-148.94,145h-182.66c-99.35-.04-149-49.67-149-145.04s49.65-145.63,149-145.63l182.66.04Zm-220.45,145.59c0,11.92,5.3,17.22,18.54,17.22h221.1c13.24,0,18.54-5.3,18.54-17.22,0-12.57-5.3-17.87-18.54-17.87h-221.1c-13.24.04-18.54,5.34-18.54,17.87Z"/><path class="cls-1" d="m472,1767.6v111.51c0,4.49-3.64,8.13-8.13,8.13H127.95c-4.49,0-8.13,3.64-8.13,8.13v69.81c0,4.49-3.64,8.13-8.13,8.13H16.74c-4.49,0-8.13-3.64-8.13-8.13v-197.57c0-4.49,3.64-8.13,8.13-8.13h447.14c4.49,0,8.13,3.64,8.13,8.13Z"/><path class="cls-1" d="m472,1998.11v111.2c0,4.57-3.71,8.28-8.28,8.28H16.89c-4.57,0-8.28-3.71-8.28-8.28v-111.2c0-4.57,3.71-8.28,8.28-8.28h446.83c4.57,0,8.28,3.71,8.28,8.28Z"/><path class="cls-1" d="m331.66,2145.39c99.34,0,148.94,49.61,148.94,145.61s-49.65,145-148.94,145h-182.66c-99.35,0-149-49.65-149-145s49.65-145.64,149-145.64l182.66.03Zm-220.45,145.61c0,11.91,5.3,17.21,18.54,17.21h221.1c13.24,0,18.54-5.3,18.54-17.21,0-12.58-5.3-17.88-18.54-17.88h-221.1c-13.24.03-18.54,5.33-18.54,17.88Z"/></svg>