<?xml version="1.0" encoding="utf-8"?>
<!-- Generator: Adobe Illustrator 27.8.1, SVG Export Plug-In . SVG Version: 6.00 Build 0)  -->
<svg version="1.1" id="Layer_2" xmlns="http://www.w3.org/2000/svg" xmlns:xlink="http://www.w3.org/1999/xlink" x="0px" y="0px"
	 viewBox="0 0 480.6 2436" style="enable-background:new 0 0 480.6 2436;" xml:space="preserve">
<style type="text/css">
	.st0{fill:#FFFFFF;}
</style>
<path class="st0" d="M0,139.7C0,47,47,0,140.3,0h66.1c4.5,0,8.1,3.6,8.1,8.1v101.7c0,4.5-3.6,8.1-8.1,8.1h-76.7
	c-13.2,0-18.5,5.3-18.5,17.2c0,12.6,5.3,17.9,18.5,17.9h334.2c4.5,0,8.1,3.6,8.1,8.1v111.6c0,4.5-3.6,8.1-8.1,8.1H140.3
	C47,280.7,0,232.4,0,139.7z"/>
<path class="st0" d="M331.7,306.5c99.3,0,148.9,49.6,148.9,145.6c0,95.3-49.6,145-148.9,145H149c-99.3,0-149-49.7-149-145
	c0-96,49.7-145.6,149-145.6H331.7z M111.2,452.1c0,11.9,5.3,17.2,18.5,17.2h221.1c13.2,0,18.5-5.3,18.5-17.2
	c0-12.6-5.3-17.9-18.5-17.9H129.8C116.5,434.2,111.2,439.5,111.2,452.1z"/>
<path class="st0" d="M177.4,753.3H13.9c-2.9,0-5.3-2.4-5.3-5.3V630.8c0-2.9,2.4-5.3,5.3-5.3h452.8c2.9,0,5.3,2.4,5.3,5.3v149.6
	c0,68.8-8.6,135.7-120.5,135.7h-13.2c-54.5,0-82.5-17.5-96.3-42.9c-1.9-3.6-7-3.6-9.1-0.1c-15.7,26-46.1,43.1-103.8,43.1h-4
	c-73.1,0-91.2,8-108.5,18.4c-3.5,2.1-8-0.5-8-4.5V806.9c0-2,1.2-3.9,3-4.8c14.8-6.9,38.7-14.4,94.3-14.4h22.5
	c45.7,0,54.3-9.9,54.3-29.1l0,0C182.7,755.7,180.3,753.3,177.4,753.3z M293.9,770.5c0,11.9,5.3,17.2,18.5,17.2h29.8
	c13.2,0,18.5-5.3,18.5-17.2v-11.9c0-2.9-2.4-5.3-5.3-5.3h-56.3c-2.9,0-5.3,2.4-5.3,5.3V770.5z"/>
<path class="st0" d="M360.8,1189.3v-51.2c0-4.5-3.7-8.2-8.2-8.2H16.8c-4.5,0-8.2-3.7-8.2-8.2v-111.5c0-4.5,3.7-8.2,8.2-8.2h335.8
	c4.5,0,8.2-3.7,8.2-8.2v-51.2c0-4.5,3.7-8.2,8.2-8.2h94.9c4.5,0,8.2,3.7,8.2,8.2v246.5c0,4.5-3.7,8.2-8.2,8.2h-94.9
	C364.4,1197.5,360.8,1193.8,360.8,1189.3z"/>
<path class="st0" d="M8.6,1334.4v-111.6c0-4.5,3.6-8.1,8.1-8.1h447.2c4.5,0,8.1,3.6,8.1,8.1v197.6c0,4.5-3.6,8.1-8.1,8.1h-95
	c-4.5,0-8.1-3.6-8.1-8.1v-69.9c0-4.5-3.6-8.1-8.1-8.1h-51.3c-4.5,0-8.1,3.6-8.1,8.1v52c0,4.5-3.6,8.1-8.1,8.1h-95
	c-4.5,0-8.1-3.6-8.1-8.1v-52c0-4.5-3.6-8.1-8.1-8.1H16.7C12.2,1342.4,8.6,1338.8,8.6,1334.4z"/>
<path class="st0" d="M331.7,1440.4c99.3,0,148.9,49.7,148.9,145.6c0,95.3-49.6,145-148.9,145H149c-99.3,0-149-49.7-149-145
	c0-96,49.7-145.6,149-145.6L331.7,1440.4z M111.2,1586c0,11.9,5.3,17.2,18.5,17.2h221.1c13.2,0,18.5-5.3,18.5-17.2
	c0-12.6-5.3-17.9-18.5-17.9H129.8C116.5,1568.2,111.2,1573.5,111.2,1586z"/>
<path class="st0" d="M472,1767.6v111.5c0,4.5-3.6,8.1-8.1,8.1H127.9c-4.5,0-8.1,3.6-8.1,8.1v69.8c0,4.5-3.6,8.1-8.1,8.1h-95
	c-4.5,0-8.1-3.6-8.1-8.1v-197.6c0-4.5,3.6-8.1,8.1-8.1h447.1C468.4,1759.5,472,1763.1,472,1767.6z"/>
<path class="st0" d="M472,1998.1v111.2c0,4.6-3.7,8.3-8.3,8.3H16.9c-4.6,0-8.3-3.7-8.3-8.3v-111.2c0-4.6,3.7-8.3,8.3-8.3h446.8
	C468.3,1989.8,472,1993.5,472,1998.1z"/>
<path class="st0" d="M331.7,2145.4c99.3,0,148.9,49.6,148.9,145.6c0,95.3-49.6,145-148.9,145H149c-99.3,0-149-49.6-149-145
	c0-96,49.7-145.6,149-145.6L331.7,2145.4z M111.2,2291c0,11.9,5.3,17.2,18.5,17.2h221.1c13.2,0,18.5-5.3,18.5-17.2
	c0-12.6-5.3-17.9-18.5-17.9H129.8C116.5,2273.1,111.2,2278.4,111.2,2291z"/>
</svg>
